<?xml version="1.0" encoding="UTF-8" standalone="no"?>
<!DOCTYPE svg PUBLIC "-//W3C//DTD SVG 1.1//EN" "http://www.w3.org/Graphics/SVG/1.1/DTD/svg11.dtd">
<svg width="100%" height="100%" viewBox="0 0 925 234" version="1.1" xmlns="http://www.w3.org/2000/svg" xmlns:xlink="http://www.w3.org/1999/xlink" xml:space="preserve" xmlns:serif="http://www.serif.com/" style="fill-rule:evenodd;clip-rule:evenodd;stroke-linejoin:round;stroke-miterlimit:2;">
    <g transform="matrix(4.16667,0,0,4.16667,0,0)">
        <path d="M82.996,48.561C84.624,48.561 85.321,48.096 85.321,45.539L85.321,11.051C85.321,8.416 84.856,7.253 82.376,7.253L78.191,7.253L78.191,48.561L82.996,48.561ZM70.983,0.589L84.236,0.589C90.978,0.589 92.606,3.688 92.606,9.423L92.606,45.848C92.606,52.668 90.978,55.303 84.856,55.303L70.983,55.303L70.983,0.589Z" style="fill:rgb(108,110,112);fill-rule:nonzero;"/>
        <path d="M115.855,14.616C115.855,8.881 115.313,6.479 111.67,6.479C107.253,6.479 107.253,10.353 107.253,12.911L107.253,44.143C107.253,47.088 107.718,49.878 111.438,49.878C115.7,49.878 115.855,46.468 115.855,43.369L115.855,14.616ZM122.985,43.058C122.985,53.675 117.25,55.846 111.05,55.846C104.851,55.846 100.045,53.289 100.045,43.058L100.045,14.383C100.045,9.423 100.666,0.201 111.825,0.201C121.59,0.201 122.985,7.253 122.985,14.539L122.985,43.058Z" style="fill:rgb(108,110,112);fill-rule:nonzero;"/>
        <path d="M136.625,24.071L140.268,24.071C143.368,24.071 143.833,21.436 143.833,18.026L143.833,12.601C143.833,9.191 143.833,7.176 141.275,7.176L136.625,7.176L136.625,24.071ZM144.53,55.303C143.601,50.188 143.445,49.026 143.445,43.833L143.445,38.873C143.445,35.308 143.445,30.116 139.958,30.116L136.548,30.116L136.548,55.303L129.34,55.303L129.34,0.589L141.198,0.589C148.018,0.589 150.963,1.751 150.963,11.206L150.963,18.026C150.963,27.016 147.786,27.171 144.375,27.558C149.49,27.79 150.653,30.581 150.653,37.324L150.653,44.531C150.653,50.731 150.808,51.893 152.048,55.303L144.53,55.303Z" style="fill:rgb(108,110,112);fill-rule:nonzero;"/>
        <rect x="157.318" y="0.589" width="7.13" height="54.714" style="fill:rgb(108,110,112);fill-rule:nonzero;"/>
        <path d="M194.129,42.206C194.129,48.949 191.959,56 182.195,56C171.344,56 170.57,47.321 170.57,42.981L170.57,15.546C170.57,9.036 171.577,0.046 182.814,0.046C191.881,0.046 194.129,6.014 194.129,13.454L194.129,20.428L186.921,20.428L186.921,11.981C186.921,9.733 186.612,6.324 182.427,6.324C178.785,6.324 177.854,9.114 177.854,12.291L177.854,43.446C177.854,48.483 179.017,49.723 182.272,49.723C186.457,49.723 186.844,46.545 186.844,43.29L186.844,32.673L194.129,32.673L194.129,42.206Z" style="fill:rgb(108,110,112);fill-rule:nonzero;"/>
        <path d="M214.667,14.616C214.667,8.881 214.125,6.479 210.483,6.479C206.065,6.479 206.065,10.353 206.065,12.911L206.065,44.143C206.065,47.088 206.53,49.878 210.25,49.878C214.512,49.878 214.667,46.468 214.667,43.369L214.667,14.616ZM221.797,43.058C221.797,53.675 216.063,55.846 209.863,55.846C203.663,55.846 198.858,53.289 198.858,43.058L198.858,14.383C198.858,9.423 199.478,0.201 210.637,0.201C220.403,0.201 221.797,7.253 221.797,14.539L221.797,43.058Z" style="fill:rgb(108,110,112);fill-rule:nonzero;"/>
        <path d="M27.35,0.6L0,0.6L0,55.302L9.772,55.302L9.772,31.079C9.772,22.973 18.668,15.379 29.815,15.379C35.671,15.379 39.725,18.497 39.725,23.174C39.725,31.073 31.586,38.509 21.5,39.009C19.415,39.009 17.049,38.936 14.912,38.367L14.912,55.302L27.35,55.302C42.456,55.302 54.702,43.056 54.702,27.951C54.702,12.846 42.456,0.6 27.35,0.6Z" style="fill:rgb(206,20,50);"/>
    </g>
</svg>
